<svg width="134" height="97" viewBox="0 0 134 97" fill="none" xmlns="http://www.w3.org/2000/svg">
<mask id="mask0_97_2" style="mask-type:luminance" maskUnits="userSpaceOnUse" x="23" y="14" width="90" height="70">
<path d="M23.1035 14.4777H112.437V83.9702H23.1035V14.4777Z" fill="white"/>
</mask>
<g mask="url(#mask0_97_2)">
<path d="M45.1297 36.0804C54.9727 33.0861 56.2335 27.4435 65.2157 24.6211C68.2888 23.6559 78.2875 21.1277 87.1465 26.8386C95.7146 32.3658 97.6687 42.0288 98.0479 44.1382C95.9146 44.1405 87.1652 44.3946 79.7184 51.2496C70.8734 59.3898 70.8408 70.4183 70.8642 72.1436H64.1851C64.3083 68.2618 65.1296 59.6556 70.9268 51.4779C72.7509 48.9073 76.5498 43.6839 83.5384 40.6284C85.9949 39.5525 88.1957 39.03 89.7777 38.7544C89.0937 37.2573 87.521 34.3831 84.3455 32.3046C80.3837 29.7081 76.1869 29.9364 73.5233 30.0706C72.3158 30.1318 70.0965 30.2589 67.449 31.2217C63.4382 32.6788 61.6865 34.7621 58.9413 36.8808C51.483 42.6456 42.8962 43.6109 39.5136 43.9922C35.766 44.4135 32.6416 44.2229 30.578 43.9922L31.2504 37.2245C34.5912 37.6152 39.5812 37.7681 45.1297 36.0804ZM30.6733 22.5048C30.3733 27.7048 34.5259 32.0244 39.3554 31.9726C43.8873 31.9232 47.7957 28.0391 47.8678 23.1663C47.7794 18.3477 43.871 14.4871 39.2717 14.4777C34.8981 14.4683 31.0944 17.9451 30.6733 22.5048ZM55.3959 67.6147C55.403 76.574 48.1167 83.9513 39.2625 83.9513C30.4083 83.9513 23.1244 76.574 23.1289 67.6147C23.1755 58.6929 30.4454 51.3767 39.2625 51.3767C48.0817 51.3767 55.3495 58.6929 55.3959 67.6147ZM48.8705 68.4738C49.331 62.8477 44.7644 57.8642 39.2625 57.8549C34.3143 57.8456 29.9941 61.8637 29.6406 66.9743C29.2798 72.2025 33.1813 76.9719 38.4367 77.4238C43.7733 77.885 48.4402 73.7185 48.8705 68.4738ZM112.404 67.6147C112.409 76.574 105.125 83.9513 96.2707 83.9513C87.4165 83.9513 80.1302 76.574 80.1371 67.6147C80.1837 58.6929 87.4513 51.3767 96.2707 51.3767C105.09 51.3767 112.358 58.6929 112.404 67.6147ZM105.911 67.664C105.921 62.3817 101.57 57.8597 96.2707 57.8549C91.2804 57.8525 87.0512 61.859 86.6557 66.8779C86.2393 72.1602 90.2011 76.9223 95.3446 77.4166C100.903 77.9487 105.902 73.3159 105.911 67.664Z" fill="#001E0F"/>
<path d="M45.1297 36.0804C54.9727 33.0861 56.2335 27.4435 65.2157 24.6211C68.2888 23.6559 78.2875 21.1277 87.1465 26.8386C95.7146 32.3658 97.6687 42.0288 98.0479 44.1382C95.9146 44.1405 87.1652 44.3946 79.7184 51.2496C70.8734 59.3898 70.8408 70.4183 70.8642 72.1436H64.1851C64.3083 68.2618 65.1296 59.6556 70.9268 51.4779C72.7509 48.9073 76.5498 43.6839 83.5384 40.6284C85.9949 39.5525 88.1957 39.03 89.7777 38.7544C89.0937 37.2573 87.521 34.3831 84.3455 32.3046C80.3837 29.7081 76.1869 29.9364 73.5233 30.0706C72.3158 30.1318 70.0965 30.2589 67.449 31.2217C63.4382 32.6788 61.6865 34.7621 58.9413 36.8808C51.483 42.6456 42.8962 43.6109 39.5136 43.9922C35.766 44.4135 32.6416 44.2229 30.578 43.9922L31.2504 37.2245C34.5912 37.6152 39.5812 37.7681 45.1297 36.0804ZM30.6733 22.5048C30.3733 27.7048 34.5259 32.0244 39.3554 31.9726C43.8873 31.9232 47.7957 28.0391 47.8678 23.1663C47.7794 18.3477 43.871 14.4871 39.2717 14.4777C34.8981 14.4683 31.0944 17.9451 30.6733 22.5048ZM55.3959 67.6147C55.403 76.574 48.1167 83.9513 39.2625 83.9513C30.4083 83.9513 23.1244 76.574 23.1289 67.6147C23.1755 58.6929 30.4454 51.3767 39.2625 51.3767C48.0817 51.3767 55.3495 58.6929 55.3959 67.6147ZM48.8705 68.4738C49.331 62.8477 44.7644 57.8642 39.2625 57.8549C34.3143 57.8456 29.9941 61.8637 29.6406 66.9743C29.2798 72.2025 33.1813 76.9719 38.4367 77.4238C43.7733 77.885 48.4402 73.7185 48.8705 68.4738ZM112.404 67.6147C112.409 76.574 105.125 83.9513 96.2707 83.9513C87.4165 83.9513 80.1302 76.574 80.1371 67.6147C80.1837 58.6929 87.4513 51.3767 96.2707 51.3767C105.09 51.3767 112.358 58.6929 112.404 67.6147ZM105.911 67.664C105.921 62.3817 101.57 57.8597 96.2707 57.8549C91.2804 57.8525 87.0512 61.859 86.6557 66.8779C86.2393 72.1602 90.2011 76.9223 95.3446 77.4166C100.903 77.9487 105.902 73.3159 105.911 67.664Z" fill="#001E0F"/>
</g>
</svg>
