<svg width="42" height="32" viewBox="0 0 42 32" fill="none" xmlns="http://www.w3.org/2000/svg">
<path d="M10.2511 9.94764C14.8374 8.56882 15.425 5.97054 19.6102 4.67085C21.0421 4.22642 25.701 3.06224 29.8288 5.69196C33.8211 8.23713 34.7316 12.6868 34.9083 13.6581C33.9143 13.6592 29.8375 13.7762 26.3677 16.9328C22.2464 20.6812 22.2312 25.7596 22.2421 26.5541H19.13C19.1874 24.7666 19.5701 20.8036 22.2713 17.0379C23.1212 15.8542 24.8913 13.4489 28.1476 12.0419C29.2922 11.5465 30.3177 11.3059 31.0548 11.179C30.7361 10.4896 30.0033 9.16609 28.5237 8.20895C26.6777 7.01332 24.7222 7.11847 23.481 7.18025C22.9185 7.20844 21.8844 7.26697 20.6508 7.71032C18.782 8.3813 17.9658 9.34061 16.6867 10.3162C13.2115 12.9708 9.21053 13.4153 7.63443 13.5909C5.88815 13.7849 4.43237 13.6971 3.47089 13.5909L3.78415 10.4745C5.34074 10.6544 7.66587 10.7248 10.2511 9.94764ZM3.51533 3.69636C3.3755 6.09086 5.31039 8.07995 7.56072 8.0561C9.6723 8.03334 11.4934 6.24478 11.527 4.00096C11.4858 1.78206 9.66471 0.00434468 7.5217 8.78577e-06C5.48383 -0.00432711 3.71153 1.5967 3.51533 3.69636ZM15.0347 24.4686C15.038 28.5942 11.643 31.9913 7.51736 31.9913C3.39176 31.9913 -0.00216677 28.5942 1.03791e-06 24.4686C0.0216808 20.3603 3.4091 16.9913 7.51736 16.9913C11.6267 16.9913 15.013 20.3603 15.0347 24.4686ZM11.9942 24.8642C12.2088 22.2735 10.081 19.9787 7.51736 19.9744C5.21175 19.9701 3.19881 21.8204 3.03404 24.1737C2.86603 26.5812 4.68385 28.7774 7.13255 28.9855C9.61919 29.1979 11.7936 27.2793 11.9942 24.8642ZM41.5975 24.4686C41.5997 28.5942 38.2057 31.9913 34.0801 31.9913C29.9545 31.9913 26.5595 28.5942 26.5628 24.4686C26.5845 20.3603 29.9708 16.9913 34.0801 16.9913C38.1895 16.9913 41.5758 20.3603 41.5975 24.4686ZM38.5721 24.4913C38.5765 22.0589 36.5494 19.9766 34.0801 19.9744C31.755 19.9733 29.7844 21.8182 29.6001 24.1293C29.406 26.5617 31.2521 28.7546 33.6487 28.9822C36.2383 29.2272 38.5678 27.0939 38.5721 24.4913Z" fill="white"/>
<path d="M10.2511 9.94764C14.8374 8.56882 15.425 5.97054 19.6102 4.67085C21.0421 4.22642 25.701 3.06224 29.8288 5.69196C33.8211 8.23713 34.7316 12.6868 34.9083 13.6581C33.9143 13.6592 29.8375 13.7762 26.3677 16.9328C22.2464 20.6812 22.2312 25.7596 22.2421 26.5541H19.13C19.1874 24.7666 19.5701 20.8036 22.2713 17.0379C23.1212 15.8542 24.8913 13.4489 28.1476 12.0419C29.2922 11.5465 30.3177 11.3059 31.0548 11.179C30.7361 10.4896 30.0033 9.16609 28.5237 8.20895C26.6777 7.01332 24.7222 7.11847 23.481 7.18025C22.9185 7.20844 21.8844 7.26697 20.6508 7.71032C18.782 8.3813 17.9658 9.34061 16.6867 10.3162C13.2115 12.9708 9.21053 13.4153 7.63443 13.5909C5.88815 13.7849 4.43237 13.6971 3.47089 13.5909L3.78415 10.4745C5.34074 10.6544 7.66587 10.7248 10.2511 9.94764ZM3.51533 3.69636C3.3755 6.09086 5.31039 8.07995 7.56072 8.0561C9.6723 8.03334 11.4934 6.24478 11.527 4.00096C11.4858 1.78206 9.66471 0.00434468 7.5217 8.78577e-06C5.48383 -0.00432711 3.71153 1.5967 3.51533 3.69636ZM15.0347 24.4686C15.038 28.5942 11.643 31.9913 7.51736 31.9913C3.39176 31.9913 -0.00216677 28.5942 1.03791e-06 24.4686C0.0216808 20.3603 3.4091 16.9913 7.51736 16.9913C11.6267 16.9913 15.013 20.3603 15.0347 24.4686ZM11.9942 24.8642C12.2088 22.2735 10.081 19.9787 7.51736 19.9744C5.21175 19.9701 3.19881 21.8204 3.03404 24.1737C2.86603 26.5812 4.68385 28.7774 7.13255 28.9855C9.61919 29.1979 11.7936 27.2793 11.9942 24.8642ZM41.5975 24.4686C41.5997 28.5942 38.2057 31.9913 34.0801 31.9913C29.9545 31.9913 26.5595 28.5942 26.5628 24.4686C26.5845 20.3603 29.9708 16.9913 34.0801 16.9913C38.1895 16.9913 41.5758 20.3603 41.5975 24.4686ZM38.5721 24.4913C38.5765 22.0589 36.5494 19.9766 34.0801 19.9744C31.755 19.9733 29.7844 21.8182 29.6001 24.1293C29.406 26.5617 31.2521 28.7546 33.6487 28.9822C36.2383 29.2272 38.5678 27.0939 38.5721 24.4913Z" fill="white"/>
</svg>
