<svg width="43" height="52" viewBox="0 0 43 52" fill="none" xmlns="http://www.w3.org/2000/svg">
<path fill-rule="evenodd" clip-rule="evenodd" d="M4.4387 19.3805C5.56908 15.9524 6.22399 12.3396 6.83279 8.83375C6.96132 8.07852 6.46629 7.34973 5.72661 7.26212C4.98885 7.12023 4.28526 7.63249 4.15916 8.33346C3.57207 11.7316 2.94973 15.2365 1.863 18.5034C1.62787 19.1995 2.0125 19.9781 2.72315 20.2275C3.43326 20.4769 4.20302 20.0765 4.4387 19.3805Z" fill="#02BF9B"/>
<path fill-rule="evenodd" clip-rule="evenodd" d="M17.7789 30.5248C23.7321 25.1936 28.983 19.1243 35.0843 13.9085C35.653 13.4449 35.7213 12.5782 35.2353 12.0128C34.7487 11.4473 33.8918 11.3547 33.3206 11.8725C27.2025 17.0876 21.9353 23.1562 15.9653 28.4866C15.4071 29.0051 15.3605 29.8724 15.8613 30.4385C16.3638 30.9503 17.2207 31.0433 17.7789 30.5248Z" fill="#02BF9B"/>
<path fill-rule="evenodd" clip-rule="evenodd" d="M39.2396 41.9816C35.9688 41.9976 32.6979 42.0133 29.4265 42.0293C28.679 41.9957 28.0725 42.621 28.0747 43.3821C28.0774 44.1432 28.6894 44.7141 29.4375 44.7477C32.7138 44.7319 35.9895 44.7165 39.2652 44.7006C40.0152 44.68 40.6179 44.0547 40.6113 43.2934C40.6023 42.5864 39.9891 41.961 39.2396 41.9816Z" fill="#02BF9B"/>
</svg>
