<svg width="43" height="43" viewBox="0 0 43 43" fill="none" xmlns="http://www.w3.org/2000/svg">
<path fill-rule="evenodd" clip-rule="evenodd" d="M30.4764 17.5836C30.5417 17.5643 30.6073 17.5458 30.6734 17.5281C34.9347 16.3863 39.3149 18.9152 40.4567 23.1765C41.5985 27.4378 39.0697 31.818 34.8083 32.9598C30.7904 34.0364 26.6669 31.8497 25.2517 28.0244C20.6696 18.8575 24.2997 7.68399 33.4349 2.97398C33.8566 2.75653 34.2828 2.55664 34.7125 2.37402C31.1564 6.54839 29.5802 12.1317 30.4764 17.5836Z" fill="#E9ECF2"/>
<path fill-rule="evenodd" clip-rule="evenodd" d="M12.0341 22.525C12.0993 22.5058 12.165 22.4873 12.2311 22.4696C16.4924 21.3277 20.8726 23.8566 22.0144 28.118C23.1563 32.3794 20.6274 36.7596 16.366 37.9013C12.3484 38.9779 8.22515 36.7916 6.80975 32.9668C2.22702 23.7997 5.85709 12.6258 14.9925 7.91563C15.4143 7.69818 15.8404 7.49828 16.2702 7.31567C12.7141 11.49 11.1379 17.0733 12.0341 22.525Z" fill="#E9ECF2"/>
</svg>
