<svg width="200" height="42" viewBox="0 0 200 42" fill="none" xmlns="http://www.w3.org/2000/svg">
<g clip-path="url(#clip0_147_740)">
<g clip-path="url(#clip1_147_740)">
<g clip-path="url(#clip2_147_740)">
<path d="M20.8882 0.111847C9.35454 0.111847 0 9.46639 0 21C0 32.5337 9.35454 41.8882 20.8882 41.8882C32.4218 41.8882 41.7763 32.5337 41.7763 21C41.7763 9.46639 32.4339 0.111847 20.8882 0.111847ZM20.8882 38.6257C11.1725 38.6257 3.26265 30.7157 3.26265 21C3.26265 11.2843 11.1725 3.3745 20.8882 3.3745C30.6039 3.3745 38.5138 11.2843 38.5138 21C38.5138 30.7157 30.6159 38.6257 20.8882 38.6257ZM28.7257 12.8374H13.0506C11.7263 12.8374 10.5103 13.5597 9.88424 14.7396C9.25822 15.9074 9.33046 17.316 10.0648 18.4236L17.9024 30.174C18.5646 31.1732 19.6842 31.7752 20.8882 31.7752C22.0921 31.7752 23.2117 31.1732 23.8739 30.174L31.7115 18.4236C32.4459 17.316 32.5181 15.9074 31.8921 14.7396C31.266 13.5597 30.0501 12.8374 28.7257 12.8374ZM29.0026 16.6057L21.1651 28.356C21.0447 28.5366 20.7437 28.5366 20.6233 28.356L12.7857 16.6057C12.7255 16.5093 12.7135 16.3769 12.7616 16.2686C12.8218 16.1602 12.9302 16.1 13.0506 16.1H28.7137C28.8341 16.1 28.9424 16.1602 29.0026 16.2686C29.0628 16.3769 29.0628 16.5093 29.0026 16.6057Z" fill="#02BF9B"/>
<path d="M56.743 21V5.355H62.266C63.302 5.355 64.212 5.551 64.996 5.943C65.78 6.335 66.389 6.895 66.823 7.623C67.271 8.351 67.495 9.205 67.495 10.185C67.495 11.165 67.271 12.019 66.823 12.747C66.389 13.461 65.78 14.021 64.996 14.427C64.226 14.819 63.316 15.015 62.266 15.015H58.801V21H56.743ZM58.801 13.125H62.329C62.959 13.125 63.505 13.006 63.967 12.768C64.429 12.53 64.786 12.187 65.038 11.739C65.29 11.291 65.416 10.773 65.416 10.185C65.416 9.583 65.29 9.065 65.038 8.631C64.786 8.183 64.429 7.84 63.967 7.602C63.505 7.364 62.959 7.245 62.329 7.245H58.801V13.125ZM75.328 21.252C74.236 21.252 73.249 21 72.367 20.496C71.485 19.978 70.785 19.271 70.267 18.375C69.749 17.479 69.49 16.464 69.49 15.33C69.49 14.196 69.742 13.188 70.246 12.306C70.764 11.424 71.464 10.724 72.346 10.206C73.228 9.688 74.222 9.429 75.328 9.429C76.42 9.429 77.407 9.688 78.289 10.206C79.171 10.71 79.864 11.403 80.368 12.285C80.886 13.167 81.145 14.182 81.145 15.33C81.145 16.478 80.879 17.5 80.347 18.396C79.815 19.278 79.108 19.978 78.226 20.496C77.358 21 76.392 21.252 75.328 21.252ZM75.328 19.362C76.028 19.362 76.658 19.187 77.218 18.837C77.792 18.487 78.24 18.004 78.562 17.388C78.898 16.772 79.066 16.086 79.066 15.33C79.066 14.56 78.898 13.881 78.562 13.293C78.24 12.691 77.792 12.215 77.218 11.865C76.658 11.501 76.028 11.319 75.328 11.319C74.614 11.319 73.97 11.501 73.396 11.865C72.836 12.215 72.388 12.691 72.052 13.293C71.716 13.881 71.548 14.56 71.548 15.33C71.548 16.086 71.716 16.772 72.052 17.388C72.388 18.004 72.836 18.487 73.396 18.837C73.97 19.187 74.614 19.362 75.328 19.362ZM84.0072 21V5.103H85.9602V16.002L85.1622 15.813L91.1682 9.681H93.6672L89.3202 14.238L93.9612 21H91.6512L87.4092 14.868L88.6272 14.805L85.3302 18.249L85.9602 16.821V21H84.0072ZM96.0322 21V5.103H97.9852V11.886L97.6282 11.697C97.9082 10.983 98.3562 10.43 98.9722 10.038C99.6022 9.632 100.337 9.429 101.177 9.429C101.989 9.429 102.71 9.611 103.34 9.975C103.984 10.339 104.488 10.843 104.852 11.487C105.23 12.131 105.419 12.859 105.419 13.671V21H103.445V14.301C103.445 13.671 103.326 13.139 103.088 12.705C102.864 12.271 102.549 11.935 102.143 11.697C101.737 11.445 101.268 11.319 100.736 11.319C100.218 11.319 99.7492 11.445 99.3292 11.697C98.9092 11.935 98.5802 12.278 98.3422 12.726C98.1042 13.16 97.9852 13.685 97.9852 14.301V21H96.0322ZM111.847 21.252C111.105 21.252 110.447 21.119 109.873 20.853C109.313 20.573 108.872 20.195 108.55 19.719C108.228 19.229 108.067 18.669 108.067 18.039C108.067 17.437 108.193 16.898 108.445 16.422C108.711 15.932 109.117 15.519 109.663 15.183C110.223 14.847 110.923 14.609 111.763 14.469L115.963 13.776V15.414L112.204 16.044C111.476 16.17 110.944 16.401 110.608 16.737C110.286 17.073 110.125 17.486 110.125 17.976C110.125 18.438 110.307 18.823 110.671 19.131C111.049 19.439 111.518 19.593 112.078 19.593C112.792 19.593 113.408 19.446 113.926 19.152C114.458 18.844 114.871 18.431 115.165 17.913C115.473 17.395 115.627 16.821 115.627 16.191V13.314C115.627 12.698 115.396 12.201 114.934 11.823C114.486 11.431 113.891 11.235 113.149 11.235C112.505 11.235 111.931 11.403 111.427 11.739C110.937 12.061 110.573 12.495 110.335 13.041L108.634 12.159C108.844 11.641 109.18 11.179 109.642 10.773C110.104 10.353 110.643 10.024 111.259 9.786C111.875 9.548 112.519 9.429 113.191 9.429C114.059 9.429 114.822 9.597 115.48 9.933C116.138 10.255 116.649 10.71 117.013 11.298C117.391 11.872 117.58 12.544 117.58 13.314V21H115.669V18.858L116.026 18.984C115.788 19.432 115.466 19.824 115.06 20.16C114.654 20.496 114.178 20.762 113.632 20.958C113.086 21.154 112.491 21.252 111.847 21.252ZM120.923 21V9.681H122.834V11.76L122.624 11.466C122.89 10.822 123.296 10.346 123.842 10.038C124.388 9.716 125.053 9.555 125.837 9.555H126.53V11.403H125.543C124.745 11.403 124.101 11.655 123.611 12.159C123.121 12.649 122.876 13.349 122.876 14.259V21H120.923ZM131.898 21.252C131.156 21.252 130.498 21.119 129.924 20.853C129.364 20.573 128.923 20.195 128.601 19.719C128.279 19.229 128.118 18.669 128.118 18.039C128.118 17.437 128.244 16.898 128.496 16.422C128.762 15.932 129.168 15.519 129.714 15.183C130.274 14.847 130.974 14.609 131.814 14.469L136.014 13.776V15.414L132.255 16.044C131.527 16.17 130.995 16.401 130.659 16.737C130.337 17.073 130.176 17.486 130.176 17.976C130.176 18.438 130.358 18.823 130.722 19.131C131.1 19.439 131.569 19.593 132.129 19.593C132.843 19.593 133.459 19.446 133.977 19.152C134.509 18.844 134.922 18.431 135.216 17.913C135.524 17.395 135.678 16.821 135.678 16.191V13.314C135.678 12.698 135.447 12.201 134.985 11.823C134.537 11.431 133.942 11.235 133.2 11.235C132.556 11.235 131.982 11.403 131.478 11.739C130.988 12.061 130.624 12.495 130.386 13.041L128.685 12.159C128.895 11.641 129.231 11.179 129.693 10.773C130.155 10.353 130.694 10.024 131.31 9.786C131.926 9.548 132.57 9.429 133.242 9.429C134.11 9.429 134.873 9.597 135.531 9.933C136.189 10.255 136.7 10.71 137.064 11.298C137.442 11.872 137.631 12.544 137.631 13.314V21H135.72V18.858L136.077 18.984C135.839 19.432 135.517 19.824 135.111 20.16C134.705 20.496 134.229 20.762 133.683 20.958C133.137 21.154 132.542 21.252 131.898 21.252ZM149.056 21V13.839L143.638 5.355H145.969L150.505 12.474H149.665L154.18 5.355H156.511L151.135 13.839V21H149.056ZM161.91 21.252C160.818 21.252 159.831 21 158.949 20.496C158.067 19.978 157.367 19.271 156.849 18.375C156.331 17.479 156.072 16.464 156.072 15.33C156.072 14.196 156.324 13.188 156.828 12.306C157.346 11.424 158.046 10.724 158.928 10.206C159.81 9.688 160.804 9.429 161.91 9.429C163.002 9.429 163.989 9.688 164.871 10.206C165.753 10.71 166.446 11.403 166.95 12.285C167.468 13.167 167.727 14.182 167.727 15.33C167.727 16.478 167.461 17.5 166.929 18.396C166.397 19.278 165.69 19.978 164.808 20.496C163.94 21 162.974 21.252 161.91 21.252ZM161.91 19.362C162.61 19.362 163.24 19.187 163.8 18.837C164.374 18.487 164.822 18.004 165.144 17.388C165.48 16.772 165.648 16.086 165.648 15.33C165.648 14.56 165.48 13.881 165.144 13.293C164.822 12.691 164.374 12.215 163.8 11.865C163.24 11.501 162.61 11.319 161.91 11.319C161.196 11.319 160.552 11.501 159.978 11.865C159.418 12.215 158.97 12.691 158.634 13.293C158.298 13.881 158.13 14.56 158.13 15.33C158.13 16.086 158.298 16.772 158.634 17.388C158.97 18.004 159.418 18.487 159.978 18.837C160.552 19.187 161.196 19.362 161.91 19.362ZM175.986 25.62C175.188 25.62 174.446 25.494 173.76 25.242C173.088 24.99 172.507 24.64 172.017 24.192C171.541 23.758 171.177 23.247 170.925 22.659L172.752 21.819C172.948 22.351 173.319 22.799 173.865 23.163C174.425 23.541 175.125 23.73 175.965 23.73C176.609 23.73 177.19 23.604 177.708 23.352C178.24 23.114 178.66 22.75 178.968 22.26C179.276 21.784 179.43 21.203 179.43 20.517V17.976L179.787 18.354C179.395 19.124 178.828 19.712 178.086 20.118C177.358 20.524 176.553 20.727 175.671 20.727C174.607 20.727 173.655 20.482 172.815 19.992C171.975 19.488 171.317 18.809 170.841 17.955C170.365 17.087 170.127 16.128 170.127 15.078C170.127 14.014 170.365 13.055 170.841 12.201C171.317 11.347 171.968 10.675 172.794 10.185C173.634 9.681 174.586 9.429 175.65 9.429C176.532 9.429 177.33 9.632 178.044 10.038C178.772 10.43 179.353 10.976 179.787 11.676L179.493 12.201V9.681H181.404V20.517C181.404 21.497 181.173 22.372 180.711 23.142C180.249 23.912 179.605 24.514 178.779 24.948C177.967 25.396 177.036 25.62 175.986 25.62ZM175.839 18.837C176.511 18.837 177.113 18.669 177.645 18.333C178.191 17.997 178.625 17.549 178.947 16.989C179.269 16.415 179.43 15.778 179.43 15.078C179.43 14.392 179.269 13.762 178.947 13.188C178.625 12.614 178.191 12.159 177.645 11.823C177.113 11.487 176.511 11.319 175.839 11.319C175.153 11.319 174.53 11.487 173.97 11.823C173.41 12.159 172.969 12.614 172.647 13.188C172.339 13.748 172.185 14.378 172.185 15.078C172.185 15.778 172.339 16.415 172.647 16.989C172.969 17.549 173.403 17.997 173.949 18.333C174.509 18.669 175.139 18.837 175.839 18.837ZM188.065 21.252C187.323 21.252 186.665 21.119 186.091 20.853C185.531 20.573 185.09 20.195 184.768 19.719C184.446 19.229 184.285 18.669 184.285 18.039C184.285 17.437 184.411 16.898 184.663 16.422C184.929 15.932 185.335 15.519 185.881 15.183C186.441 14.847 187.141 14.609 187.981 14.469L192.181 13.776V15.414L188.422 16.044C187.694 16.17 187.162 16.401 186.826 16.737C186.504 17.073 186.343 17.486 186.343 17.976C186.343 18.438 186.525 18.823 186.889 19.131C187.267 19.439 187.736 19.593 188.296 19.593C189.01 19.593 189.626 19.446 190.144 19.152C190.676 18.844 191.089 18.431 191.383 17.913C191.691 17.395 191.845 16.821 191.845 16.191V13.314C191.845 12.698 191.614 12.201 191.152 11.823C190.704 11.431 190.109 11.235 189.367 11.235C188.723 11.235 188.149 11.403 187.645 11.739C187.155 12.061 186.791 12.495 186.553 13.041L184.852 12.159C185.062 11.641 185.398 11.179 185.86 10.773C186.322 10.353 186.861 10.024 187.477 9.786C188.093 9.548 188.737 9.429 189.409 9.429C190.277 9.429 191.04 9.597 191.698 9.933C192.356 10.255 192.867 10.71 193.231 11.298C193.609 11.872 193.798 12.544 193.798 13.314V21H191.887V18.858L192.244 18.984C192.006 19.432 191.684 19.824 191.278 20.16C190.872 20.496 190.396 20.762 189.85 20.958C189.304 21.154 188.709 21.252 188.065 21.252Z" fill="black"/>
<path d="M56.162 38.1118V27.6818H57.31L63.302 36.1098L62.784 36.1658V27.6818H64.17V38.1118H63.022L57.058 29.6278L57.534 29.5718V38.1118H56.162ZM70.1309 38.2798C69.4029 38.2798 68.7543 38.1072 68.1849 37.7618C67.6156 37.4165 67.1676 36.9452 66.8409 36.3478C66.5143 35.7412 66.3509 35.0645 66.3509 34.3178C66.3509 33.5618 66.5096 32.8898 66.8269 32.3018C67.1536 31.7138 67.5923 31.2518 68.1429 30.9158C68.7029 30.5705 69.3283 30.3978 70.0189 30.3978C70.5789 30.3978 71.0736 30.5005 71.5029 30.7058C71.9416 30.9018 72.3103 31.1725 72.6089 31.5178C72.9169 31.8538 73.1503 32.2412 73.3089 32.6798C73.4769 33.1092 73.5609 33.5572 73.5609 34.0238C73.5609 34.1265 73.5516 34.2432 73.5329 34.3738C73.5236 34.4952 73.5096 34.6118 73.4909 34.7238H67.3029V33.6038H72.7349L72.1189 34.1078C72.2029 33.6225 72.1563 33.1885 71.9789 32.8058C71.8016 32.4232 71.5403 32.1198 71.1949 31.8958C70.8496 31.6718 70.4576 31.5598 70.0189 31.5598C69.5803 31.5598 69.1789 31.6718 68.8149 31.8958C68.4509 32.1198 68.1663 32.4418 67.9609 32.8618C67.7649 33.2725 67.6856 33.7625 67.7229 34.3318C67.6856 34.8825 67.7696 35.3678 67.9749 35.7878C68.1896 36.1985 68.4883 36.5205 68.8709 36.7538C69.2629 36.9778 69.6876 37.0898 70.1449 37.0898C70.6489 37.0898 71.0736 36.9732 71.4189 36.7398C71.7643 36.5065 72.0443 36.2078 72.2589 35.8438L73.3509 36.4038C73.2016 36.7492 72.9683 37.0665 72.6509 37.3558C72.3429 37.6358 71.9743 37.8598 71.5449 38.0278C71.1249 38.1958 70.6536 38.2798 70.1309 38.2798ZM75.5735 40.9118V30.5658H76.8475V32.1898L76.6795 31.8678C76.9595 31.4198 77.3422 31.0652 77.8275 30.8038C78.3129 30.5332 78.8682 30.3978 79.4935 30.3978C80.2029 30.3978 80.8375 30.5705 81.3975 30.9158C81.9669 31.2612 82.4149 31.7325 82.7415 32.3298C83.0682 32.9178 83.2315 33.5898 83.2315 34.3458C83.2315 35.0832 83.0682 35.7505 82.7415 36.3478C82.4149 36.9452 81.9669 37.4165 81.3975 37.7618C80.8375 38.1072 80.1982 38.2798 79.4795 38.2798C78.8729 38.2798 78.3175 38.1445 77.8135 37.8738C77.3189 37.6032 76.9362 37.2205 76.6655 36.7258L76.8755 36.5018V40.9118H75.5735ZM79.3815 37.0198C79.8575 37.0198 80.2822 36.9032 80.6555 36.6698C81.0289 36.4365 81.3182 36.1192 81.5235 35.7178C81.7382 35.3072 81.8455 34.8498 81.8455 34.3458C81.8455 33.8232 81.7382 33.3658 81.5235 32.9738C81.3182 32.5725 81.0289 32.2552 80.6555 32.0218C80.2822 31.7792 79.8575 31.6578 79.3815 31.6578C78.9055 31.6578 78.4762 31.7745 78.0935 32.0078C77.7202 32.2412 77.4215 32.5632 77.1975 32.9738C76.9829 33.3752 76.8755 33.8325 76.8755 34.3458C76.8755 34.8498 76.9829 35.3072 77.1975 35.7178C77.4215 36.1192 77.7202 36.4365 78.0935 36.6698C78.4762 36.9032 78.9055 37.0198 79.3815 37.0198ZM87.4658 38.2798C86.9711 38.2798 86.5324 38.1912 86.1498 38.0138C85.7764 37.8272 85.4824 37.5752 85.2678 37.2578C85.0531 36.9312 84.9458 36.5578 84.9458 36.1378C84.9458 35.7365 85.0298 35.3772 85.1978 35.0598C85.3751 34.7332 85.6458 34.4578 86.0098 34.2338C86.3831 34.0098 86.8498 33.8512 87.4098 33.7578L90.2098 33.2958V34.3878L87.7038 34.8078C87.2184 34.8918 86.8638 35.0458 86.6398 35.2698C86.4251 35.4938 86.3178 35.7692 86.3178 36.0958C86.3178 36.4038 86.4391 36.6605 86.6818 36.8658C86.9338 37.0712 87.2464 37.1738 87.6198 37.1738C88.0958 37.1738 88.5064 37.0758 88.8518 36.8798C89.2064 36.6745 89.4818 36.3992 89.6778 36.0538C89.8831 35.7085 89.9858 35.3258 89.9858 34.9058V32.9878C89.9858 32.5772 89.8318 32.2458 89.5238 31.9938C89.2251 31.7325 88.8284 31.6018 88.3338 31.6018C87.9044 31.6018 87.5218 31.7138 87.1858 31.9378C86.8591 32.1525 86.6164 32.4418 86.4578 32.8058L85.3238 32.2178C85.4638 31.8725 85.6878 31.5645 85.9958 31.2938C86.3038 31.0138 86.6631 30.7945 87.0738 30.6358C87.4844 30.4772 87.9138 30.3978 88.3618 30.3978C88.9404 30.3978 89.4491 30.5098 89.8878 30.7338C90.3264 30.9485 90.6671 31.2518 90.9098 31.6438C91.1618 32.0265 91.2878 32.4745 91.2878 32.9878V38.1118H90.0138V36.6838L90.2518 36.7678C90.0931 37.0665 89.8784 37.3278 89.6078 37.5518C89.3371 37.7758 89.0198 37.9532 88.6558 38.0838C88.2918 38.2145 87.8951 38.2798 87.4658 38.2798ZM93.6215 38.1118V27.5138H94.9235V38.1118H93.6215ZM97.4828 31.1678V30.5378C97.7721 30.4632 97.9868 30.3278 98.1268 30.1318C98.2761 29.9265 98.3648 29.6698 98.3928 29.3618H97.7628V27.6818H99.1208V28.8718C99.1208 29.4785 98.9808 29.9825 98.7008 30.3838C98.4301 30.7758 98.0241 31.0372 97.4828 31.1678ZM104.459 38.2798C103.703 38.2798 103.045 38.0932 102.485 37.7198C101.925 37.3465 101.529 36.8425 101.295 36.2078L102.331 35.7038C102.546 36.1518 102.84 36.5065 103.213 36.7678C103.587 37.0292 104.002 37.1598 104.459 37.1598C104.87 37.1598 105.211 37.0618 105.481 36.8658C105.752 36.6698 105.887 36.4132 105.887 36.0958C105.887 35.8718 105.822 35.6945 105.691 35.5638C105.57 35.4238 105.421 35.3165 105.243 35.2418C105.066 35.1578 104.903 35.0972 104.753 35.0598L103.619 34.7378C102.938 34.5418 102.439 34.2618 102.121 33.8978C101.813 33.5338 101.659 33.1092 101.659 32.6238C101.659 32.1758 101.771 31.7885 101.995 31.4618C102.229 31.1258 102.541 30.8645 102.933 30.6778C103.335 30.4912 103.783 30.3978 104.277 30.3978C104.94 30.3978 105.533 30.5658 106.055 30.9018C106.587 31.2378 106.965 31.7092 107.189 32.3158L106.125 32.8058C105.957 32.4138 105.705 32.1058 105.369 31.8818C105.033 31.6485 104.655 31.5318 104.235 31.5318C103.853 31.5318 103.549 31.6298 103.325 31.8258C103.101 32.0125 102.989 32.2505 102.989 32.5398C102.989 32.7545 103.045 32.9318 103.157 33.0718C103.269 33.2025 103.405 33.3052 103.563 33.3798C103.722 33.4452 103.876 33.5012 104.025 33.5478L105.257 33.9118C105.873 34.0892 106.349 34.3645 106.685 34.7378C107.031 35.1112 107.203 35.5592 107.203 36.0818C107.203 36.5018 107.087 36.8798 106.853 37.2158C106.62 37.5518 106.298 37.8132 105.887 37.9998C105.477 38.1865 105.001 38.2798 104.459 38.2798ZM112.546 38.1118L113.288 35.5218H111.608V34.3318H113.624L114.464 31.4478H112.784V30.2578H114.8L115.542 27.6818H116.9L116.158 30.2578H118.888L119.63 27.6818H121.002L120.26 30.2578H121.94V31.4478H119.91L119.084 34.3318H120.764V35.5218H118.748L118.006 38.1118H116.634L117.376 35.5218H114.646L113.904 38.1118H112.546ZM114.996 34.3318H117.726L118.552 31.4478H115.822L114.996 34.3318ZM125.405 38.1118V28.8718H123.431V27.6818H126.791V38.1118H125.405ZM132.471 38.1118V27.6818H136.153C136.843 27.6818 137.45 27.8125 137.973 28.0738C138.495 28.3352 138.901 28.7085 139.191 29.1938C139.489 29.6792 139.639 30.2485 139.639 30.9018C139.639 31.6392 139.452 32.2645 139.079 32.7778C138.705 33.2912 138.201 33.6598 137.567 33.8838L139.989 38.1118H138.393L135.845 33.5898L136.755 34.1218H133.843V38.1118H132.471ZM133.843 32.8618H136.195C136.605 32.8618 136.965 32.7825 137.273 32.6238C137.581 32.4652 137.819 32.2365 137.987 31.9378C138.164 31.6392 138.253 31.2938 138.253 30.9018C138.253 30.5005 138.164 30.1552 137.987 29.8658C137.819 29.5672 137.581 29.3385 137.273 29.1798C136.965 29.0212 136.605 28.9418 136.195 28.9418H133.843V32.8618ZM144.758 38.2798C144.03 38.2798 143.381 38.1072 142.812 37.7618C142.243 37.4165 141.795 36.9452 141.468 36.3478C141.141 35.7412 140.978 35.0645 140.978 34.3178C140.978 33.5618 141.137 32.8898 141.454 32.3018C141.781 31.7138 142.219 31.2518 142.77 30.9158C143.33 30.5705 143.955 30.3978 144.646 30.3978C145.206 30.3978 145.701 30.5005 146.13 30.7058C146.569 30.9018 146.937 31.1725 147.236 31.5178C147.544 31.8538 147.777 32.2412 147.936 32.6798C148.104 33.1092 148.188 33.5572 148.188 34.0238C148.188 34.1265 148.179 34.2432 148.16 34.3738C148.151 34.4952 148.137 34.6118 148.118 34.7238H141.93V33.6038H147.362L146.746 34.1078C146.83 33.6225 146.783 33.1885 146.606 32.8058C146.429 32.4232 146.167 32.1198 145.822 31.8958C145.477 31.6718 145.085 31.5598 144.646 31.5598C144.207 31.5598 143.806 31.6718 143.442 31.8958C143.078 32.1198 142.793 32.4418 142.588 32.8618C142.392 33.2725 142.313 33.7625 142.35 34.3318C142.313 34.8825 142.397 35.3678 142.602 35.7878C142.817 36.1985 143.115 36.5205 143.498 36.7538C143.89 36.9778 144.315 37.0898 144.772 37.0898C145.276 37.0898 145.701 36.9732 146.046 36.7398C146.391 36.5065 146.671 36.2078 146.886 35.8438L147.978 36.4038C147.829 36.7492 147.595 37.0665 147.278 37.3558C146.97 37.6358 146.601 37.8598 146.172 38.0278C145.752 38.1958 145.281 38.2798 144.758 38.2798ZM153.267 38.1958C152.529 38.1958 151.96 37.9858 151.559 37.5658C151.167 37.1458 150.971 36.5532 150.971 35.7878V31.8118H149.599V30.5658H149.879C150.215 30.5658 150.481 30.4632 150.677 30.2578C150.873 30.0525 150.971 29.7818 150.971 29.4458V28.8298H152.273V30.5658H153.967V31.8118H152.273V35.7458C152.273 35.9978 152.31 36.2172 152.385 36.4038C152.469 36.5905 152.604 36.7398 152.791 36.8518C152.977 36.9545 153.225 37.0058 153.533 37.0058C153.598 37.0058 153.677 37.0012 153.771 36.9918C153.873 36.9825 153.967 36.9732 154.051 36.9638V38.1118C153.929 38.1398 153.794 38.1585 153.645 38.1678C153.495 38.1865 153.369 38.1958 153.267 38.1958ZM156.066 38.1118V30.5658H157.34V31.9518L157.2 31.7558C157.378 31.3265 157.648 31.0092 158.012 30.8038C158.376 30.5892 158.82 30.4818 159.342 30.4818H159.804V31.7138H159.146C158.614 31.7138 158.185 31.8818 157.858 32.2178C157.532 32.5445 157.368 33.0112 157.368 33.6178V38.1118H156.066ZM164.748 38.2798C164.02 38.2798 163.371 38.1072 162.802 37.7618C162.233 37.4165 161.785 36.9452 161.458 36.3478C161.131 35.7412 160.968 35.0645 160.968 34.3178C160.968 33.5618 161.127 32.8898 161.444 32.3018C161.771 31.7138 162.209 31.2518 162.76 30.9158C163.32 30.5705 163.945 30.3978 164.636 30.3978C165.196 30.3978 165.691 30.5005 166.12 30.7058C166.559 30.9018 166.927 31.1725 167.226 31.5178C167.534 31.8538 167.767 32.2412 167.926 32.6798C168.094 33.1092 168.178 33.5572 168.178 34.0238C168.178 34.1265 168.169 34.2432 168.15 34.3738C168.141 34.4952 168.127 34.6118 168.108 34.7238H161.92V33.6038H167.352L166.736 34.1078C166.82 33.6225 166.773 33.1885 166.596 32.8058C166.419 32.4232 166.157 32.1198 165.812 31.8958C165.467 31.6718 165.075 31.5598 164.636 31.5598C164.197 31.5598 163.796 31.6718 163.432 31.8958C163.068 32.1198 162.783 32.4418 162.578 32.8618C162.382 33.2725 162.303 33.7625 162.34 34.3318C162.303 34.8825 162.387 35.3678 162.592 35.7878C162.807 36.1985 163.105 36.5205 163.488 36.7538C163.88 36.9778 164.305 37.0898 164.762 37.0898C165.266 37.0898 165.691 36.9732 166.036 36.7398C166.381 36.5065 166.661 36.2078 166.876 35.8438L167.968 36.4038C167.819 36.7492 167.585 37.0665 167.268 37.3558C166.96 37.6358 166.591 37.8598 166.162 38.0278C165.742 38.1958 165.271 38.2798 164.748 38.2798ZM172.307 38.2798C171.812 38.2798 171.374 38.1912 170.991 38.0138C170.618 37.8272 170.324 37.5752 170.109 37.2578C169.894 36.9312 169.787 36.5578 169.787 36.1378C169.787 35.7365 169.871 35.3772 170.039 35.0598C170.216 34.7332 170.487 34.4578 170.851 34.2338C171.224 34.0098 171.691 33.8512 172.251 33.7578L175.051 33.2958V34.3878L172.545 34.8078C172.06 34.8918 171.705 35.0458 171.481 35.2698C171.266 35.4938 171.159 35.7692 171.159 36.0958C171.159 36.4038 171.28 36.6605 171.523 36.8658C171.775 37.0712 172.088 37.1738 172.461 37.1738C172.937 37.1738 173.348 37.0758 173.693 36.8798C174.048 36.6745 174.323 36.3992 174.519 36.0538C174.724 35.7085 174.827 35.3258 174.827 34.9058V32.9878C174.827 32.5772 174.673 32.2458 174.365 31.9938C174.066 31.7325 173.67 31.6018 173.175 31.6018C172.746 31.6018 172.363 31.7138 172.027 31.9378C171.7 32.1525 171.458 32.4418 171.299 32.8058L170.165 32.2178C170.305 31.8725 170.529 31.5645 170.837 31.2938C171.145 31.0138 171.504 30.7945 171.915 30.6358C172.326 30.4772 172.755 30.3978 173.203 30.3978C173.782 30.3978 174.29 30.5098 174.729 30.7338C175.168 30.9485 175.508 31.2518 175.751 31.6438C176.003 32.0265 176.129 32.4745 176.129 32.9878V38.1118H174.855V36.6838L175.093 36.7678C174.934 37.0665 174.72 37.3278 174.449 37.5518C174.178 37.7758 173.861 37.9532 173.497 38.0838C173.133 38.2145 172.736 38.2798 172.307 38.2798ZM181.392 38.1958C180.655 38.1958 180.085 37.9858 179.684 37.5658C179.292 37.1458 179.096 36.5532 179.096 35.7878V31.8118H177.724V30.5658H178.004C178.34 30.5658 178.606 30.4632 178.802 30.2578C178.998 30.0525 179.096 29.7818 179.096 29.4458V28.8298H180.398V30.5658H182.092V31.8118H180.398V35.7458C180.398 35.9978 180.435 36.2172 180.51 36.4038C180.594 36.5905 180.729 36.7398 180.916 36.8518C181.103 36.9545 181.35 37.0058 181.658 37.0058C181.723 37.0058 181.803 37.0012 181.896 36.9918C181.999 36.9825 182.092 36.9732 182.176 36.9638V38.1118C182.055 38.1398 181.919 38.1585 181.77 38.1678C181.621 38.1865 181.495 38.1958 181.392 38.1958Z" fill="#636363"/>
</g>
</g>
</g>
<defs>
<clipPath id="clip0_147_740">
<rect width="200" height="42" fill="white"/>
</clipPath>
<clipPath id="clip1_147_740">
<rect width="200" height="42" fill="white"/>
</clipPath>
<clipPath id="clip2_147_740">
<rect width="200" height="41.7763" fill="white" transform="translate(0 0.111847)"/>
</clipPath>
</defs>
</svg>
