<svg width="29" height="29" viewBox="0 0 29 29" fill="none" xmlns="http://www.w3.org/2000/svg">
<path fill-rule="evenodd" clip-rule="evenodd" d="M7.53343 13.7285C7.48637 13.7219 7.43924 13.7147 7.39206 13.7069C4.34891 13.2032 2.29022 10.328 2.79387 7.28485C3.29752 4.24168 6.17278 2.18301 9.21593 2.68666C12.0853 3.16154 14.0794 5.74481 13.8757 8.58927C14.1458 15.7496 8.60744 21.8159 1.43035 22.1767C1.09894 22.1933 0.769797 22.1976 0.443359 22.1897C3.91336 20.5587 6.52954 17.4588 7.53343 13.7285Z" fill="#E9ECF2"/>
<path fill-rule="evenodd" clip-rule="evenodd" d="M20.7037 15.908C20.6566 15.9015 20.6095 15.8943 20.5623 15.8865C17.5191 15.3828 15.4604 12.5075 15.9641 9.46433C16.4677 6.42114 19.343 4.36245 22.3862 4.8661C25.2554 5.34097 27.2495 7.92409 27.0459 10.7685C27.3163 17.9289 21.7778 23.9953 14.6006 24.3561C14.2693 24.3728 13.9401 24.3769 13.6138 24.3691C17.0837 22.7382 19.6998 19.6383 20.7037 15.908Z" fill="#E9ECF2"/>
</svg>
