<svg width="123" height="51" viewBox="0 0 123 51" fill="none" xmlns="http://www.w3.org/2000/svg">
<mask id="mask0_97_2" style="mask-type:luminance" maskUnits="userSpaceOnUse" x="40" y="0" width="43" height="32">
<path d="M40.6875 0H82.3121V32H40.6875V0Z" fill="white"/>
</mask>
<g mask="url(#mask0_97_2)">
<path d="M50.9504 9.94764C55.5367 8.56882 56.1242 5.97054 60.3094 4.67085C61.7413 4.22642 66.4002 3.06224 70.528 5.69196C74.5203 8.23713 75.4308 12.6868 75.6075 13.6581C74.6135 13.6592 70.5367 13.7762 67.0669 16.9328C62.9456 20.6812 62.9304 25.7596 62.9413 26.5541H59.8292C59.8866 24.7666 60.2693 20.8036 62.9705 17.0379C63.8204 15.8542 65.5905 13.4489 68.8468 12.0419C69.9914 11.5465 71.0169 11.3059 71.754 11.179C71.4353 10.4896 70.7025 9.16609 69.2229 8.20895C67.3769 7.01332 65.4214 7.11847 64.1803 7.18025C63.6177 7.20844 62.5836 7.26697 61.35 7.71032C59.4812 8.3813 58.665 9.34061 57.3859 10.3162C53.9107 12.9708 49.9097 13.4153 48.3336 13.5909C46.5874 13.7849 45.1316 13.6971 44.1701 13.5909L44.4834 10.4745C46.04 10.6544 48.3651 10.7248 50.9504 9.94764ZM44.2145 3.69636C44.0747 6.09086 46.0096 8.07995 48.2599 8.0561C50.3715 8.03334 52.1926 6.24478 52.2262 4.00096C52.185 1.78206 50.3639 0.00434468 48.2209 8.78578e-06C46.183 -0.00432711 44.4107 1.5967 44.2145 3.69636ZM55.7339 24.4686C55.7372 28.5942 52.3422 31.9913 48.2166 31.9913C44.091 31.9913 40.6971 28.5942 40.6992 24.4686C40.7209 20.3603 44.1083 16.9913 48.2166 16.9913C52.3259 16.9913 55.7123 20.3603 55.7339 24.4686ZM52.6934 24.8642C52.908 22.2735 50.7802 19.9787 48.2166 19.9744C45.911 19.9701 43.898 21.8204 43.7333 24.1737C43.5652 26.5812 45.3831 28.7774 47.8318 28.9855C50.3184 29.1979 52.4929 27.2793 52.6934 24.8642ZM82.2967 24.4686C82.2989 28.5942 78.905 31.9913 74.7794 31.9913C70.6538 31.9913 67.2588 28.5942 67.262 24.4686C67.2837 20.3603 70.67 16.9913 74.7794 16.9913C78.8887 16.9913 82.275 20.3603 82.2967 24.4686ZM79.2714 24.4913C79.2757 22.0589 77.2487 19.9766 74.7794 19.9744C72.4542 19.9733 70.4836 21.8182 70.2993 24.1293C70.1053 26.5617 71.9513 28.7546 74.3479 28.9822C76.9376 29.2272 79.267 27.0939 79.2714 24.4913Z" fill="#001E0F"/>
<path d="M50.9504 9.94764C55.5367 8.56882 56.1242 5.97054 60.3094 4.67085C61.7413 4.22642 66.4002 3.06224 70.528 5.69196C74.5203 8.23713 75.4308 12.6868 75.6075 13.6581C74.6135 13.6592 70.5367 13.7762 67.0669 16.9328C62.9456 20.6812 62.9304 25.7596 62.9413 26.5541H59.8292C59.8866 24.7666 60.2693 20.8036 62.9705 17.0379C63.8204 15.8542 65.5905 13.4489 68.8468 12.0419C69.9914 11.5465 71.0169 11.3059 71.754 11.179C71.4353 10.4896 70.7025 9.16609 69.2229 8.20895C67.3769 7.01332 65.4214 7.11847 64.1803 7.18025C63.6177 7.20844 62.5836 7.26697 61.35 7.71032C59.4812 8.3813 58.665 9.34061 57.3859 10.3162C53.9107 12.9708 49.9097 13.4153 48.3336 13.5909C46.5874 13.7849 45.1316 13.6971 44.1701 13.5909L44.4834 10.4745C46.04 10.6544 48.3651 10.7248 50.9504 9.94764ZM44.2145 3.69636C44.0747 6.09086 46.0096 8.07995 48.2599 8.0561C50.3715 8.03334 52.1926 6.24478 52.2262 4.00096C52.185 1.78206 50.3639 0.00434468 48.2209 8.78578e-06C46.183 -0.00432711 44.4107 1.5967 44.2145 3.69636ZM55.7339 24.4686C55.7372 28.5942 52.3422 31.9913 48.2166 31.9913C44.091 31.9913 40.6971 28.5942 40.6992 24.4686C40.7209 20.3603 44.1083 16.9913 48.2166 16.9913C52.3259 16.9913 55.7123 20.3603 55.7339 24.4686ZM52.6934 24.8642C52.908 22.2735 50.7802 19.9787 48.2166 19.9744C45.911 19.9701 43.898 21.8204 43.7333 24.1737C43.5652 26.5812 45.3831 28.7774 47.8318 28.9855C50.3184 29.1979 52.4929 27.2793 52.6934 24.8642ZM82.2967 24.4686C82.2989 28.5942 78.905 31.9913 74.7794 31.9913C70.6538 31.9913 67.2588 28.5942 67.262 24.4686C67.2837 20.3603 70.67 16.9913 74.7794 16.9913C78.8887 16.9913 82.275 20.3603 82.2967 24.4686ZM79.2714 24.4913C79.2757 22.0589 77.2487 19.9766 74.7794 19.9744C72.4542 19.9733 70.4836 21.8182 70.2993 24.1293C70.1053 26.5617 71.9513 28.7546 74.3479 28.9822C76.9376 29.2272 79.267 27.0939 79.2714 24.4913Z" fill="#001E0F"/>
</g>
<path d="M1.16504 50V41.7799H3.49304L5.98904 48.824H6.16904V41.7799H7.50104V50H5.22104L2.66504 42.944H2.49704V50H1.16504ZM9.3916 50V41.7799H14.5756V42.944H10.7236V45.2719H13.8556V46.424H10.7236V48.824H14.5756V50H9.3916ZM19.0364 47.444H17.3564V50H16.0244V41.7799H19.0364C20.9004 41.7799 21.8324 42.7 21.8324 44.54C21.8324 45.484 21.5964 46.204 21.1244 46.7C20.6604 47.196 19.9644 47.444 19.0364 47.444ZM17.3564 46.292H19.0244C19.9844 46.292 20.4644 45.708 20.4644 44.54C20.4644 43.98 20.3484 43.572 20.1164 43.316C19.8844 43.06 19.5204 42.9319 19.0244 42.9319H17.3564V46.292ZM22.1132 50L24.1412 41.7799H26.7932L28.8332 50H27.4892L27.0452 48.236H23.8892L23.4452 50H22.1132ZM25.1732 42.896L24.1532 47.06H26.7812L25.7732 42.896H25.1732ZM34.6128 50H30.0048V41.7799H31.3368V48.812H34.6128V50ZM38.3369 50V41.7799H40.6529L42.4889 48.2L44.3249 41.7799H46.6529V50H45.3089V43.256H45.1289L43.1849 49.664H41.7929L39.8489 43.256H39.6689V50H38.3369ZM49.9602 48.2599C50.2322 48.7319 50.7522 48.9679 51.5202 48.9679C52.2882 48.9679 52.8042 48.7359 53.0682 48.2719C53.3402 47.8079 53.4762 47.032 53.4762 45.944C53.4762 44.848 53.3362 44.052 53.0562 43.556C52.7842 43.06 52.2722 42.812 51.5202 42.812C50.7682 42.812 50.2522 43.06 49.9722 43.556C49.6922 44.052 49.5522 44.8439 49.5522 45.9319C49.5522 47.0119 49.6882 47.7879 49.9602 48.2599ZM54.1122 49.124C53.6242 49.796 52.7602 50.132 51.5202 50.132C50.2802 50.132 49.4122 49.796 48.9162 49.124C48.4202 48.444 48.1722 47.3799 48.1722 45.9319C48.1722 44.4839 48.4202 43.4079 48.9162 42.7039C49.4202 41.9999 50.2882 41.6479 51.5202 41.6479C52.7522 41.6479 53.6162 41.9999 54.1122 42.7039C54.6082 43.3999 54.8562 44.4759 54.8562 45.9319C54.8562 47.3879 54.6082 48.452 54.1122 49.124ZM57.6792 47.372C57.6792 48.436 58.2392 48.9679 59.3592 48.9679C60.4792 48.9679 61.0392 48.436 61.0392 47.372V41.7799H62.3832V47.3479C62.3832 48.3159 62.1272 49.024 61.6152 49.472C61.1112 49.912 60.3552 50.132 59.3472 50.132C58.3472 50.132 57.5952 49.912 57.0912 49.472C56.5872 49.024 56.3352 48.3159 56.3352 47.3479V41.7799H57.6792V47.372ZM64.2119 50V41.7799H66.5399L69.0359 48.824H69.2159V41.7799H70.5479V50H68.2679L65.7119 42.944H65.5439V50H64.2119ZM71.6464 42.9679V41.7799H77.6464V42.9679H75.3304V50H73.9864V42.9679H71.6464ZM77.5547 50L79.5827 41.7799H82.2347L84.2747 50H82.9307L82.4867 48.236H79.3307L78.8867 50H77.5547ZM80.6147 42.896L79.5947 47.06H82.2227L81.2147 42.896H80.6147ZM85.4462 50V41.7799H86.7782V50H85.4462ZM88.6689 50V41.7799H90.9969L93.4929 48.824H93.6729V41.7799H95.0049V50H92.7249L90.1689 42.944H90.0009V50H88.6689ZM99.5322 41.7799H102.652C103.492 41.7799 104.12 41.952 104.536 42.296C104.952 42.632 105.16 43.172 105.16 43.916C105.16 44.404 105.08 44.788 104.92 45.068C104.768 45.348 104.524 45.58 104.188 45.764C104.972 46.068 105.364 46.704 105.364 47.672C105.364 49.224 104.492 50 102.748 50H99.5322V41.7799ZM102.652 46.4119H100.864V48.8479H102.676C103.116 48.8479 103.444 48.7559 103.66 48.5719C103.884 48.3879 103.996 48.072 103.996 47.624C103.996 47.176 103.868 46.864 103.612 46.688C103.356 46.504 103.036 46.4119 102.652 46.4119ZM102.58 42.9319H100.864V45.284H102.628C103.412 45.284 103.804 44.8799 103.804 44.0719C103.804 43.3119 103.396 42.9319 102.58 42.9319ZM106.88 50V41.7799H108.212V50H106.88ZM111.434 50H110.102V41.7799H111.434V45.4879L112.658 45.3919L114.338 41.7799H115.862L113.834 45.908L115.946 50H114.398L112.658 46.568L111.434 46.652V50ZM117.098 50V41.7799H122.282V42.944H118.43V45.2719H121.562V46.424H118.43V48.824H122.282V50H117.098Z" fill="#001E0F"/>
</svg>
